Coordinates
version=1
nRows=19
nColumns=36
inDegrees=yes

Units are S.I. units (second, meters, Newtons, ...)
If the header above contains a line with 'inDegrees', this indicates whether rotational values are in degrees (yes) or radians (no).

endheader
time	pelvis_tilt	pelvis_list	pelvis_rotation	pelvis_tx	pelvis_ty	pelvis_tz	hip_flexion_r	hip_adduction_r	hip_rotation_r	knee_angle_r	knee_angle_r_beta	ankle_angle_r	subtalar_angle_r	mtp_angle_r	hip_flexion_l	hip_adduction_l	hip_rotation_l	knee_angle_l	knee_angle_l_beta	ankle_angle_l	subtalar_angle_l	mtp_angle_l	lumbar_extension	lumbar_bending	lumbar_rotation	arm_flex_r	arm_add_r	arm_rot_r	elbow_flex_r	pro_sup_r	arm_flex_l	arm_add_l	arm_rot_l	elbow_flex_l	pro_sup_l
     44.66666670	      5.68898208	      2.00228932	     -8.75739304	      0.55261655	      0.94204481	      0.73491740	      6.81706816	     -3.65679586	      3.08465124	     62.27211791	      1.08685349	    -11.74095581	    -17.52886280	     -7.49999987	     11.53746533	      3.25064961	     -1.10028683	     23.62876037	      0.41239967	      7.64697704	    -12.98891270	     -7.49999987	    -15.37033335	     -3.33320208	      3.67394206	      6.05373248	    -10.41585992	      3.04417651	     26.99479704	     83.87407659	      6.33808811	    -11.19309688	     11.13695885	     21.68074761	     81.25192062
     44.68333330	      5.68793739	      1.65559016	     -8.96067995	      0.55244563	      0.94324991	      0.73393489	      9.05355182	     -2.62570906	      3.58216396	     63.94313613	      1.11601826	     -7.51032923	    -16.54335076	     -7.49999987	      9.82655367	      2.94136797	     -1.54366134	     22.51682779	      0.39299278	      8.02113203	    -12.47700033	     -7.49999987	    -15.10725708	     -3.21428857	      4.06970729	      4.92218077	     -9.94797797	      2.13126679	     24.78614385	     84.22909166	      7.34140722	    -11.27635495	     12.04351144	     20.99092905	     81.79517802
     44.70000000	      6.05357657	      1.21831466	     -9.27746863	      0.55171566	      0.94319559	      0.73300139	     10.84748884	     -1.51337442	      4.04103532	     64.95152889	      1.13361803	     -3.23954729	    -15.98964120	     -7.49999987	      7.65789867	      2.63963007	     -1.90689155	     21.41130804	      0.37369782	      8.43519258	    -12.11778424	     -7.49999987	    -15.50185215	     -3.05934331	      4.90016083	      3.29409275	     -9.50963966	     -0.67586306	     24.10270929	     87.18990890	      8.50996160	    -11.34169944	     12.73038206	     20.97943373	     83.67637841
     44.71666670	      6.50859859	      0.79973328	     -9.60768296	      0.55078846	      0.94158564	      0.73210310	     12.77674715	     -0.48469725	      4.31272476	     65.64713344	      1.14575862	      0.74875383	    -15.36894076	     -7.49999987	      5.32328578	      2.45634752	     -2.05962253	     20.25455598	      0.35350869	      8.96191546	    -11.99766331	     -7.49999987	    -15.96315889	     -2.88581181	      5.01319551	      2.46161412	     -9.29346815	     -0.65492305	     23.01445594	     85.89639781	      9.08078688	    -11.49908679	     12.35183680	     21.59857334	     82.37723065
     44.73333330	      6.81781570	      0.45834455	     -9.99994531	      0.54994873	      0.94001642	      0.73159379	     15.13250878	      0.49105374	      4.58868754	     66.01154447	      1.15211880	      3.78217142	    -14.86333328	     -7.49999987	      3.13163344	      2.32219180	     -2.38291842	     19.13206544	      0.33391753	     10.07141723	    -11.25513195	     -7.49999987	    -16.19858550	     -2.76846009	      5.04921032	      1.87364982	     -9.12760802	     -0.34444534	     21.92774092	     85.61067711	      9.59199956	    -11.74833316	     12.03027490	     22.06548700	     82.07320053
     44.75000000	      7.09511680	      0.14214694	    -10.20713523	      0.54913530	      0.94079850	      0.73119567	     17.44212228	      1.29122886	      4.65012202	     65.61710988	      1.14523461	      6.06021082	    -13.94435268	     -7.49999987	      0.93759726	      2.30661370	     -2.15773021	     17.92454737	      0.31284237	     10.97552442	    -11.09093700	     -7.49999987	    -16.45061006	     -2.58837179	      4.94267488	      1.27979462	     -8.99362795	     -0.28106705	     21.12169727	     85.53977128	      9.86956522	    -11.99526863	     11.04183662	     23.03672191	     82.14734993
     44.76666670	      7.44542134	     -0.21491940	    -10.47652275	      0.54851585	      0.94186775	      0.73093563	     19.24423893	      2.06180201	      4.85015024	     64.08168401	      1.11843638	      7.17693679	    -13.66426294	     -7.49999987	     -1.43738187	      2.21955816	     -2.23217734	     16.65842793	      0.29074442	     12.09979088	    -10.39788257	     -7.49999987	    -16.83370118	     -2.32240032	      4.48596875	      0.79357946	     -8.86716224	     -0.18240935	     20.76249829	     85.68378803	     10.00383814	    -12.27255165	     10.04190173	     23.73972590	     82.59379543
     44.78333330	      7.66362785	     -0.57494697	    -10.63126114	      0.54778783	      0.94021921	      0.72980517	     20.67766902	      2.64512688	      4.89520016	     61.50239029	      1.07341921	      8.08223880	    -13.08926629	     -7.49999987	     -3.63797134	      2.13202070	     -2.18147493	     15.55273526	      0.27144644	     13.08866785	     -9.91118560	     -7.49999987	    -16.97517466	     -1.99794509	      4.10194797	      0.27000749	     -8.79858208	      0.07452586	     19.98944836	     85.06492187	     10.22536558	    -12.44449792	      9.27734201	     24.63957703	     82.27630536
     44.80000000	      7.79360608	     -0.92631162	    -10.84712940	      0.54566404	      0.93732105	      0.72804986	     21.76744516	      3.16425578	      5.05541107	     57.94103108	      1.01126176	      8.68088567	    -12.82174132	     -7.49999987	     -5.67073963	      2.05550246	     -2.30124191	     14.56794133	      0.25425854	     14.00230036	     -9.36733900	     -7.49999987	    -17.10267247	     -1.64552016	      3.63301729	     -0.23146650	     -8.86839928	      0.24352834	     19.60825014	     85.07839883	     10.64021595	    -12.61847245	      8.73068025	     25.55469875	     82.67079078
     44.81666670	      7.66887090	     -1.27314865	    -10.90072072	      0.54215746	      0.93481641	      0.72650513	     22.77850654	      3.60329097	      5.18324572	     53.62268039	      0.93589233	      9.14117287	    -12.42202594	     -7.49999987	     -7.22565895	      1.95796471	     -2.18617660	     13.81543466	      0.24112482	     14.66568846	     -9.27744456	     -7.49999987	    -17.03135456	     -1.28373591	      3.35730652	     -0.70351519	     -8.98803753	      0.37751692	     18.80885051	     84.94771726	     11.41206266	    -12.59692396	      8.44912626	     26.58468805	     82.95748086
     44.83333330	      7.61593267	     -1.62542594	    -10.93769187	      0.53769471	      0.93386136	      0.72652104	     23.52631005	      4.02656725	      5.46634991	     48.97420341	      0.85476110	      9.17255006	    -12.38260897	     -7.49999987	     -8.63134334	      1.81268764	     -2.57641508	     13.32591076	      0.23258102	     15.92281422	     -8.36290127	     -7.49999987	    -17.21802366	     -0.88929600	      2.82434943	     -1.26253277	     -9.06179420	     -1.44638711	     19.40441613	     86.91183054	     12.21476480	    -12.62062034	      7.56468551	     27.09726404	     86.13175841
     44.85000000	      7.36788327	     -1.88711919	    -10.87909852	      0.53277039	      0.93413810	      0.72723453	     24.35814837	      4.31217243	      5.74442930	     44.29683871	      0.77312568	      8.79160744	    -12.41078563	     -7.49999987	     -9.61159014	      1.73398060	     -2.82269738	     12.97653692	      0.22648329	     17.02422398	     -8.01971237	     -7.49999987	    -17.19287745	     -0.59040594	      2.20116103	     -1.30678271	     -9.29872118	     -1.17880530	     19.24405724	     85.88889055	     12.92937544	    -12.72367635	      7.59364787	     27.51878664	     85.12866354
     44.86666670	      7.05336324	     -2.08676285	    -10.72109009	      0.52851885	      0.93337421	      0.72721227	     25.19755114	      4.46644341	      5.93751195	     39.88660340	      0.69615256	      8.20055232	    -12.47615211	     -7.49999987	    -10.33483153	      1.69744815	     -2.99630161	     12.85650499	      0.22438834	     18.28084659	     -7.73950697	     -7.49999987	    -17.12122675	     -0.36045558	      1.56273182	     -1.12733558	     -9.54919638	     -0.92159778	     19.12197856	     85.62480600	     13.67667952	    -12.90195482	      7.70364040	     27.56340017	     85.07819746
     44.88333330	      6.58763791	     -2.17086581	    -10.47506390	      0.52642001	      0.92943180	      0.72628494	     26.20279092	      4.46100060	      5.92133000	     35.87296591	      0.62610137	      7.90104976	    -12.32324584	     -7.49999987	    -10.86362998	      1.73221577	     -3.15153600	     12.77478585	      0.22296207	     19.65419757	     -7.38788797	     -7.49999987	    -16.82823961	     -0.18317398	      0.91003424	     -0.96048525	     -9.76304008	     -0.74690150	     18.92277449	     84.75696856	     14.32478026	    -12.99110823	      7.72795651	     27.45009385	     84.46982209
     44.90000000	      5.94705484	     -2.28622636	    -10.14302475	      0.52609841	      0.92513664	      0.72522953	     27.27893640	      4.46836594	      5.63900306	     32.02582429	      0.55895608	      7.90272955	    -12.04686232	     -7.49999987	    -11.29244585	      1.65916023	     -3.26351901	     12.72319926	      0.22206172	     20.90439070	     -7.04450770	     -7.49999987	    -16.26672618	      0.20155147	      0.16277841	     -0.66840748	    -10.01452412	     -0.28600118	     18.33842936	     84.11856211	     14.71781509	    -13.03471832	      7.66746170	     27.16449074	     84.03763817
     44.91666670	      5.23870411	     -2.40137952	     -9.74717267	      0.52651101	      0.92211522	      0.72434465	     28.26374315	      4.42777106	      5.12265735	     28.33130826	      0.49447461	      8.45648362	    -11.26649819	     -7.49999987	    -11.77718718	      1.49028951	     -3.50077971	     12.64721093	      0.22073547	     21.93903986	     -6.40813590	     -7.49999987	    -15.52582844	      0.72723704	     -0.78805114	     -0.37801305	    -10.23194945	      0.38135761	     17.70064247	     84.24514735	     14.74280588	    -13.02245963	      7.39587991	     26.77725604	     84.30510571
     44.93333330	      4.32757700	     -2.50585034	     -9.23009551	      0.52769621	      0.91982268	      0.72390614	     29.19905407	      4.32169562	      4.29782738	     24.89090442	      0.43442824	      9.49824582	     -9.85146088	     -7.49999987	    -12.10236133	      1.19863085	     -3.68530239	     12.63610628	      0.22054166	     22.70088170	     -5.74174825	     -7.49999987	    -14.44072948	      1.36937884	     -1.71994871	     -0.13794632	    -10.28170158	      0.70803009	     16.69935350	     83.74951867	     14.48764642	    -12.80482404	      7.07969865	     26.27734520	     83.66781006
     44.95000000	      3.28985558	     -2.59165099	     -8.66629610	      0.52966813	      0.91695380	      0.72463290	     30.12997307	      4.21260650	      3.35422258	     22.33239150	      0.38977376	     10.67139853	     -8.12480247	     -7.49999987	    -12.30568582	      0.84884845	     -3.77356372	     12.67954697	      0.22129984	     23.28511819	     -5.11092121	     -7.49999987	    -13.06287467	      2.01757040	     -2.56887802	     -0.08248999	    -10.41412150	      0.93562468	     15.56156976	     84.15505581	     13.99856245	    -12.61809835	      6.66890216	     25.66663401	     83.89495625
     44.96666670	      2.02504024	     -2.67486417	     -7.97985479	      0.53151528	      0.91283918	      0.72641641	     31.18590522	      4.09966031	      2.10687218	     20.98749653	      0.36630092	     11.82567236	     -6.47106707	     -7.49999987	    -12.10024773	      0.39702154	     -3.92678335	     13.06184577	      0.22797222	     23.98419674	     -4.23487062	     -7.49999987	    -11.30883136	      2.71547455	     -3.52638282	     -0.09170798	    -10.50577920	      1.17822384	     14.30756432	     84.42274606	     13.27731220	    -12.32447534	      6.25635989	     25.01088235	     83.96676971
